<svg xmlns="http://www.w3.org/2000/svg" xmlns:xlink="http://www.w3.org/1999/xlink" xmlns:inkscape="http://www.inkscape.org/namespaces/inkscape" version="1.1" width="203" height="158" viewBox="0 0 203 158">
<defs>
<path id="font_1_97" d="M.49899293 .18579102C.49899293 .2858429 .43299867 .36791993 .34899903 .38793946L.22099304 .4189453C.15899658 .43388368 .11999512 .48773194 .11999512 .5458069 .11999512 .61595156 .17399597 .677063 .2519989 .677063 .4189911 .677063 .44099427 .5127411 .44699098 .46777345 .44799806 .461792 .44799806 .45581056 .45899964 .45581056 .47200013 .45581056 .47200013 .46080018 .47200013 .47973634V.68107607C.47200013 .69807437 .47200013 .7050781 .46099855 .7050781 .45399476 .7050781 .45298768 .70407107 .44599916 .69207766L.41099549 .63497927C.3809967 .66404727 .33999635 .7050781 .25099183 .7050781 .13999939 .7050781 .055999757 .61694338 .055999757 .5107422 .055999757 .42790223 .10899353 .35490418 .18699646 .32788087 .19799805 .32388307 .24899292 .3118744 .31900025 .29486085 .34599305 .28785707 .37599183 .280838 .4039917 .24382019 .4249878 .2177887 .43499757 .18478394 .43499757 .1517334 .43499757 .0806427 .3849945 .008529663 .30099488 .008529663 .27198792 .008529663 .19599915 .013534546 .14299011 .06260681 .084991458 .11668396 .08198547 .18078614 .08099365 .21679688 .07998657 .22679138 .07199097 .22679138 .068984989 .22679138 .055999757 .22679138 .055999757 .2197876 .055999757 .20178223V.0015258789C.055999757-.015472412 .055999757-.022460938 .066986087-.022460938 .07398987-.022460938 .07499695-.020462037 .08198547-.009475708 .08198547-.009475708 .084991458-.0054626467 .117996219 .047592164 .14898682 .013534546 .21299744-.022460938 .3019867-.022460938 .4189911-.022460938 .49899293 .07562256 .49899293 .18579102Z"/>
<path id="font_1_105" d="M.33198548 .12385559V.18066406H.30699159V.12585449C.30699159 .052108766 .2769928 .014251709 .23999024 .014251709 .17298889 .014251709 .17298889 .10491943 .17298889 .12187195V.3996582H.31599427V.43066407H.17298889V.6142578H.147995C.14698792 .5324249 .116989139 .42565919 .018997193 .42166139V.3996582H.10398865V.12408447C.10398865 .0012512207 .19699097-.0107421879 .23298645-.0107421879 .3039856-.0107421879 .33198548 .060180665 .33198548 .12408447V.12385559Z"/>
<path id="font_1_28" d="M.48298646 .08912659V.14511109H.45799256V.08912659C.45799256 .03112793 .43299867 .025131226 .42199708 .025131226 .3889923 .025131226 .3849945 .070129398 .3849945 .07511902V.27508546C.3849945 .31707765 .3849945 .3560791 .34899903 .39312745 .30999757 .43223573 .2599945 .4482422 .21199036 .4482422 .12998963 .4482422 .06098938 .40115357 .06098938 .335083 .06098938 .30508424 .08099365 .28808595 .10699463 .28808595 .1349945 .28808595 .15299988 .30807496 .15299988 .33407594 .15299988 .3460846 .147995 .37908937 .101989749 .38008119 .1289978 .41519166 .17799378 .426239 .20999146 .426239 .25898744 .426239 .31599427 .38710023 .31599427 .29808045V.26107789C.2649994 .25808717 .19499207 .25508119 .13198853 .22509766 .056991579 .19110108 .03199768 .13911438 .03199768 .09512329 .03199768 .014251709 .1289978-.0107421879 .19198609-.0107421879 .2579956-.0107421879 .3039856 .029251099 .32299806 .07624817 .32699586 .036132814 .35398866-.005859375 .40098573-.005859375 .42199708-.005859375 .48298646 .008132935 .48298646 .08912659M.31599427 .14013672C.31599427 .04525757 .24398804 .011245728 .19898987 .011245728 .1499939 .011245728 .10899353 .04624939 .10899353 .09625244 .10899353 .15124512 .15098572 .23425293 .31599427 .24024964V.14013672Z"/>
<path id="font_1_96" d="M.3639984 .38137818C.3639984 .41337586 .33299256 .4423828 .2899933 .4423828 .21699524 .4423828 .18099976 .37538148 .16699219 .3323822V.4423828L.027999878 .43066407V.3996582C.09799194 .3996582 .10598755 .39266969 .10598755 .34370423V.07595825C.10598755 .0309906 .09498596 .0309906 .027999878 .0309906V0L.14199829 .0029907227C.18199158 .0029907227 .22898865 .0029907227 .2689972 0V.0309906H.24798584C.17399597 .0309906 .17199707 .04197693 .17199707 .07795715V.23181153C.17199707 .33137513 .21398926 .42037965 .2899933 .42037965 .29699708 .42037965 .29899598 .42037965 .30099488 .41937257 .2979889 .41838075 .27799989 .40637208 .27799989 .3803711 .27799989 .35237123 .29899598 .33737184 .32099916 .33737184 .33898927 .33737184 .3639984 .3493805 .3639984 .38137818Z"/>
<path id="font_1_104" d="M.68499758 .45214845 .66600039 .6767578H.054992677L.035995485 .45214845H.06098938C.07499695 .6128235 .08999634 .64575198 .24099732 .64575198 .25898744 .64575198 .2849884 .64575198 .29499818 .64375308 .31599427 .6397705 .31599427 .6287842 .31599427 .60583499V.07901001C.31599427 .04499817 .31599427 .0309906 .21099854 .0309906H.17098999V0C.21199036 .0029907227 .31399537 .0029907227 .3600006 .0029907227 .4059906 .0029907227 .5089874 .0029907227 .5499878 0V.0309906H.5099945C.40499879 .0309906 .40499879 .04499817 .40499879 .07901001V.60583499C.40499879 .62579348 .40499879 .6397705 .4229889 .64375308 .43399049 .64575198 .46099855 .64575198 .47999574 .64575198 .6309967 .64575198 .6459961 .6128235 .6599884 .45214845H.68499758Z"/>
<path id="font_1_62" d="M.71598818 0V.0309906H.69200137C.61499026 .0309906 .61299136 .041992189 .61299136 .07797241V.6046448C.61299136 .640625 .61499026 .6516113 .69200137 .6516113H.71598818V.6826172C.68099978 .6796112 .6069946 .6796112 .56900027 .6796112 .5309906 .6796112 .45599366 .6796112 .42099 .6826172V.6516113H.44499208C.5219879 .6516113 .5239868 .640625 .5239868 .6046448V.37083436H.22499085V.6046448C.22499085 .640625 .22698975 .6516113 .3039856 .6516113H.32798768V.6826172C.29299928 .6796112 .21899414 .6796112 .18099976 .6796112 .14299011 .6796112 .067993167 .6796112 .032989503 .6826172V.6516113H.056991579C.13398743 .6516113 .13598633 .640625 .13598633 .6046448V.07797241C.13598633 .041992189 .13398743 .0309906 .056991579 .0309906H.032989503V0C.067993167 .0029907227 .14199829 .0029907227 .17999268 .0029907227 .21798706 .0029907227 .29299928 .0029907227 .32798768 0V.0309906H.3039856C.22698975 .0309906 .22499085 .041992189 .22499085 .07797241V.33984376H.5239868V.07797241C.5239868 .041992189 .5219879 .0309906 .44499208 .0309906H.42099V0C.45599366 .0029907227 .5299988 .0029907227 .56799319 .0029907227 .60598757 .0029907227 .68099978 .0029907227 .71598818 0Z"/>
</defs>
<path transform="matrix(1.00005,0,0,-1.00005,14.9867939,79.013149)" stroke-width=".3985" stroke-linecap="butt" stroke-miterlimit="10" stroke-linejoin="miter" fill="none" stroke="#000000" d="M12.8903 0C12.8903 7.1192 7.1192 12.8903 0 12.8903-7.1192 12.8903-12.8903 7.1192-12.8903 0-12.8903-7.1192-7.1192-12.8903 0-12.8903 7.1192-12.8903 12.8903-7.1192 12.8903 0ZM0 0"/>
<use data-text="S" xlink:href="#font_1_97" transform="matrix(9.963098,0,0,-9.963098,3.8972398,82.41531)"/>
<use data-text="t" xlink:href="#font_1_105" transform="matrix(9.963098,0,0,-9.963098,9.436729,82.41531)"/>
<use data-text="a" xlink:href="#font_1_28" transform="matrix(9.963098,0,0,-9.963098,13.31237,82.41531)"/>
<use data-text="r" xlink:href="#font_1_96" transform="matrix(9.963098,0,0,-9.963098,18.293923,82.41531)"/>
<use data-text="t" xlink:href="#font_1_105" transform="matrix(9.963098,0,0,-9.963098,22.199456,82.41531)"/>
<path transform="matrix(1.00005,0,0,-1.00005,14.9867939,79.013149)" stroke-width=".3985" stroke-linecap="butt" stroke-miterlimit="10" stroke-linejoin="miter" fill="none" stroke="#000000" d="M67.24869-39.85107C67.24869-35.7243 63.90337-32.379 59.77661-32.379 55.64984-32.379 52.30453-35.7243 52.30453-39.85107 52.30453-43.97783 55.64984-47.32315 59.77661-47.32315 63.90337-47.32315 67.24869-43.97783 67.24869-39.85107ZM59.77661-39.85107"/>
<use data-text="T" xlink:href="#font_1_104" transform="matrix(9.963098,0,0,-9.963098,71.1696,122.238307)"/>
<path transform="matrix(1.00005,0,0,-1.00005,14.9867939,79.013149)" stroke-width=".3985" stroke-linecap="butt" stroke-miterlimit="10" stroke-linejoin="miter" fill="none" stroke="#000000" d="M10.8907-7.26039 50.4099-33.60678"/>
<path transform="matrix(.8320615,.5546977,.5546977,-.8320615,65.399219,112.621608)" d="M3.58653 0C2.52383 .19925 .797 .797-.3985 1.49438V-1.49438C.797-.797 2.52383-.19925 3.58653 0"/>
<path transform="matrix(1.00005,0,0,-1.00005,14.9867939,79.013149)" stroke-width=".3985" stroke-linecap="butt" stroke-miterlimit="10" stroke-linejoin="miter" fill="none" stroke="#000000" d="M127.0253-59.77661C127.0253-55.64984 123.67998-52.30453 119.55322-52.30453 115.42645-52.30453 112.08115-55.64984 112.08115-59.77661 112.08115-63.90337 115.42645-67.24869 119.55322-67.24869 123.67998-67.24869 127.0253-63.90337 127.0253-59.77661ZM119.55322-59.77661"/>
<use data-text="T" xlink:href="#font_1_104" transform="matrix(9.963098,0,0,-9.963098,130.94959,142.1653)"/>
<path transform="matrix(1.00005,0,0,-1.00005,14.9867939,79.013149)" stroke-width=".3985" stroke-linecap="butt" stroke-miterlimit="10" stroke-linejoin="miter" fill="none" stroke="#000000" d="M67.05391-42.2768 108.87358-56.21678"/>
<path transform="matrix(.9486874,.3162258,.3162258,-.9486874,123.86581,135.23273)" d="M3.58653 0C2.52383 .19925 .797 .797-.3985 1.49438V-1.49438C.797-.797 2.52383-.19925 3.58653 0"/>
<path transform="matrix(1.00005,0,0,-1.00005,14.9867939,79.013149)" stroke-width=".3985" stroke-linecap="butt" stroke-miterlimit="10" stroke-linejoin="miter" fill="none" stroke="#000000" d="M186.80191-69.73938C186.80191-65.61261 183.45659-62.2673 179.32984-62.2673 175.20307-62.2673 171.85776-65.61261 171.85776-69.73938 171.85776-73.86613 175.20307-77.21146 179.32984-77.21146 183.45659-77.21146 186.80191-73.86613 186.80191-69.73938ZM179.32984-69.73938"/>
<use data-text="T" xlink:href="#font_1_104" transform="matrix(9.963098,0,0,-9.963098,190.72858,152.1288)"/>
<path transform="matrix(1.00005,0,0,-1.00005,14.9867939,79.013149)" stroke-width=".3985" stroke-linecap="butt" stroke-miterlimit="10" stroke-linejoin="miter" fill="none" stroke="#000000" d="M127.11977-61.03764 168.22571-67.8889"/>
<path transform="matrix(.9863893,.16438821,.16438821,-.9863893,183.22092,146.90543)" d="M3.58653 0C2.52383 .19925 .797 .797-.3985 1.49438V-1.49438C.797-.797 2.52383-.19925 3.58653 0"/>
<path transform="matrix(1.00005,0,0,-1.00005,14.9867939,79.013149)" stroke-width=".3985" stroke-linecap="butt" stroke-miterlimit="10" stroke-linejoin="miter" fill="none" stroke="#000000" d="M186.80191-49.81384C186.80191-45.68707 183.45659-42.34177 179.32984-42.34177 175.20307-42.34177 171.85776-45.68707 171.85776-49.81384 171.85776-53.9406 175.20307-57.28592 179.32984-57.28592 183.45659-57.28592 186.80191-53.9406 186.80191-49.81384ZM179.32984-49.81384"/>
<use data-text="H" xlink:href="#font_1_62" transform="matrix(9.963098,0,0,-9.963098,190.58957,132.2318)"/>
<path transform="matrix(1.00005,0,0,-1.00005,14.9867939,79.013149)" stroke-width=".3985" stroke-linecap="butt" stroke-miterlimit="10" stroke-linejoin="miter" fill="none" stroke="#000000" d="M127.11977-58.51556 168.22571-51.6643"/>
<path transform="matrix(.9863893,-.16438821,-.16438821,-.9863893,183.22092,130.68003)" d="M3.58653 0C2.52383 .19925 .797 .797-.3985 1.49438V-1.49438C.797-.797 2.52383-.19925 3.58653 0"/>
<path transform="matrix(1.00005,0,0,-1.00005,14.9867939,79.013149)" stroke-width=".3985" stroke-linecap="butt" stroke-miterlimit="10" stroke-linejoin="miter" fill="none" stroke="#000000" d="M127.0253-19.92554C127.0253-15.79877 123.67998-12.45346 119.55322-12.45346 115.42645-12.45346 112.08115-15.79877 112.08115-19.92554 112.08115-24.05229 115.42645-27.39761 119.55322-27.39761 123.67998-27.39761 127.0253-24.05229 127.0253-19.92554ZM119.55322-19.92554"/>
<use data-text="H" xlink:href="#font_1_62" transform="matrix(9.963098,0,0,-9.963098,130.80957,102.342319)"/>
<path transform="matrix(1.00005,0,0,-1.00005,14.9867939,79.013149)" stroke-width=".3985" stroke-linecap="butt" stroke-miterlimit="10" stroke-linejoin="miter" fill="none" stroke="#000000" d="M67.05391-37.42534 108.87358-23.48535"/>
<path transform="matrix(.9486874,-.3162258,-.3162258,-.9486874,123.86581,102.499668)" d="M3.58653 0C2.52383 .19925 .797 .797-.3985 1.49438V-1.49438C.797-.797 2.52383-.19925 3.58653 0"/>
<path transform="matrix(1.00005,0,0,-1.00005,14.9867939,79.013149)" stroke-width=".3985" stroke-linecap="butt" stroke-miterlimit="10" stroke-linejoin="miter" fill="none" stroke="#000000" d="M186.80191-29.8883C186.80191-25.76154 183.45659-22.41623 179.32984-22.41623 175.20307-22.41623 171.85776-25.76154 171.85776-29.8883 171.85776-34.01506 175.20307-37.36038 179.32984-37.36038 183.45659-37.36038 186.80191-34.01506 186.80191-29.8883ZM179.32984-29.8883"/>
<use data-text="T" xlink:href="#font_1_104" transform="matrix(9.963098,0,0,-9.963098,190.72858,112.27581)"/>
<path transform="matrix(1.00005,0,0,-1.00005,14.9867939,79.013149)" stroke-width=".3985" stroke-linecap="butt" stroke-miterlimit="10" stroke-linejoin="miter" fill="none" stroke="#000000" d="M127.11977-21.18657 168.22571-28.03783"/>
<path transform="matrix(.9863893,.16438821,.16438821,-.9863893,183.22092,107.052379)" d="M3.58653 0C2.52383 .19925 .797 .797-.3985 1.49438V-1.49438C.797-.797 2.52383-.19925 3.58653 0"/>
<path transform="matrix(1.00005,0,0,-1.00005,14.9867939,79.013149)" stroke-width=".3985" stroke-linecap="butt" stroke-miterlimit="10" stroke-linejoin="miter" fill="none" stroke="#000000" d="M186.80191-9.96277C186.80191-5.836 183.45659-2.49069 179.32984-2.49069 175.20307-2.49069 171.85776-5.836 171.85776-9.96277 171.85776-14.08952 175.20307-17.43484 179.32984-17.43484 183.45659-17.43484 186.80191-14.08952 186.80191-9.96277ZM179.32984-9.96277"/>
<use data-text="H" xlink:href="#font_1_62" transform="matrix(9.963098,0,0,-9.963098,190.58957,92.378818)"/>
<path transform="matrix(1.00005,0,0,-1.00005,14.9867939,79.013149)" stroke-width=".3985" stroke-linecap="butt" stroke-miterlimit="10" stroke-linejoin="miter" fill="none" stroke="#000000" d="M127.11977-18.66449 168.22571-11.81323"/>
<path transform="matrix(.9863893,-.16438821,-.16438821,-.9863893,183.22092,90.826969)" d="M3.58653 0C2.52383 .19925 .797 .797-.3985 1.49438V-1.49438C.797-.797 2.52383-.19925 3.58653 0"/>
<path transform="matrix(1.00005,0,0,-1.00005,14.9867939,79.013149)" stroke-width=".3985" stroke-linecap="butt" stroke-miterlimit="10" stroke-linejoin="miter" fill="none" stroke="#000000" d="M67.24869 39.85107C67.24869 43.97783 63.90337 47.32315 59.77661 47.32315 55.64984 47.32315 52.30453 43.97783 52.30453 39.85107 52.30453 35.7243 55.64984 32.379 59.77661 32.379 63.90337 32.379 67.24869 35.7243 67.24869 39.85107ZM59.77661 39.85107"/>
<use data-text="H" xlink:href="#font_1_62" transform="matrix(9.963098,0,0,-9.963098,71.030597,42.562326)"/>
<path transform="matrix(1.00005,0,0,-1.00005,14.9867939,79.013149)" stroke-width=".3985" stroke-linecap="butt" stroke-miterlimit="10" stroke-linejoin="miter" fill="none" stroke="#000000" d="M10.8907 7.26039 50.4099 33.60678"/>
<path transform="matrix(.8320615,-.5546977,-.5546977,-.8320615,65.399219,45.404687)" d="M3.58653 0C2.52383 .19925 .797 .797-.3985 1.49438V-1.49438C.797-.797 2.52383-.19925 3.58653 0"/>
<path transform="matrix(1.00005,0,0,-1.00005,14.9867939,79.013149)" stroke-width=".3985" stroke-linecap="butt" stroke-miterlimit="10" stroke-linejoin="miter" fill="none" stroke="#000000" d="M127.0253 19.92554C127.0253 24.05229 123.67998 27.39761 119.55322 27.39761 115.42645 27.39761 112.08115 24.05229 112.08115 19.92554 112.08115 15.79877 115.42645 12.45346 119.55322 12.45346 123.67998 12.45346 127.0253 15.79877 127.0253 19.92554ZM119.55322 19.92554"/>
<use data-text="T" xlink:href="#font_1_104" transform="matrix(9.963098,0,0,-9.963098,130.94959,62.45932)"/>
<path transform="matrix(1.00005,0,0,-1.00005,14.9867939,79.013149)" stroke-width=".3985" stroke-linecap="butt" stroke-miterlimit="10" stroke-linejoin="miter" fill="none" stroke="#000000" d="M67.05391 37.42534 108.87358 23.48535"/>
<path transform="matrix(.9486874,.3162258,.3162258,-.9486874,123.86581,55.526624)" d="M3.58653 0C2.52383 .19925 .797 .797-.3985 1.49438V-1.49438C.797-.797 2.52383-.19925 3.58653 0"/>
<path transform="matrix(1.00005,0,0,-1.00005,14.9867939,79.013149)" stroke-width=".3985" stroke-linecap="butt" stroke-miterlimit="10" stroke-linejoin="miter" fill="none" stroke="#000000" d="M186.80191 9.96277C186.80191 14.08952 183.45659 17.43484 179.32984 17.43484 175.20307 17.43484 171.85776 14.08952 171.85776 9.96277 171.85776 5.836 175.20307 2.49069 179.32984 2.49069 183.45659 2.49069 186.80191 5.836 186.80191 9.96277ZM179.32984 9.96277"/>
<use data-text="T" xlink:href="#font_1_104" transform="matrix(9.963098,0,0,-9.963098,190.72858,72.42281)"/>
<path transform="matrix(1.00005,0,0,-1.00005,14.9867939,79.013149)" stroke-width=".3985" stroke-linecap="butt" stroke-miterlimit="10" stroke-linejoin="miter" fill="none" stroke="#000000" d="M127.11977 18.66449 168.22571 11.81323"/>
<path transform="matrix(.9863893,.16438821,.16438821,-.9863893,183.22092,67.199329)" d="M3.58653 0C2.52383 .19925 .797 .797-.3985 1.49438V-1.49438C.797-.797 2.52383-.19925 3.58653 0"/>
<path transform="matrix(1.00005,0,0,-1.00005,14.9867939,79.013149)" stroke-width=".3985" stroke-linecap="butt" stroke-miterlimit="10" stroke-linejoin="miter" fill="none" stroke="#000000" d="M186.80191 29.8883C186.80191 34.01506 183.45659 37.36038 179.32984 37.36038 175.20307 37.36038 171.85776 34.01506 171.85776 29.8883 171.85776 25.76154 175.20307 22.41623 179.32984 22.41623 183.45659 22.41623 186.80191 25.76154 186.80191 29.8883ZM179.32984 29.8883"/>
<use data-text="H" xlink:href="#font_1_62" transform="matrix(9.963098,0,0,-9.963098,190.58957,52.52582)"/>
<path transform="matrix(1.00005,0,0,-1.00005,14.9867939,79.013149)" stroke-width=".3985" stroke-linecap="butt" stroke-miterlimit="10" stroke-linejoin="miter" fill="none" stroke="#000000" d="M127.11977 21.18657 168.22571 28.03783"/>
<path transform="matrix(.9863893,-.16438821,-.16438821,-.9863893,183.22092,50.973917)" d="M3.58653 0C2.52383 .19925 .797 .797-.3985 1.49438V-1.49438C.797-.797 2.52383-.19925 3.58653 0"/>
<path transform="matrix(1.00005,0,0,-1.00005,14.9867939,79.013149)" stroke-width=".3985" stroke-linecap="butt" stroke-miterlimit="10" stroke-linejoin="miter" fill="none" stroke="#000000" d="M127.0253 59.77661C127.0253 63.90337 123.67998 67.24869 119.55322 67.24869 115.42645 67.24869 112.08115 63.90337 112.08115 59.77661 112.08115 55.64984 115.42645 52.30453 119.55322 52.30453 123.67998 52.30453 127.0253 55.64984 127.0253 59.77661ZM119.55322 59.77661"/>
<use data-text="H" xlink:href="#font_1_62" transform="matrix(9.963098,0,0,-9.963098,130.80957,22.63633)"/>
<path transform="matrix(1.00005,0,0,-1.00005,14.9867939,79.013149)" stroke-width=".3985" stroke-linecap="butt" stroke-miterlimit="10" stroke-linejoin="miter" fill="none" stroke="#000000" d="M67.05391 42.2768 108.87358 56.21678"/>
<path transform="matrix(.9486874,-.3162258,-.3162258,-.9486874,123.86581,22.793557)" d="M3.58653 0C2.52383 .19925 .797 .797-.3985 1.49438V-1.49438C.797-.797 2.52383-.19925 3.58653 0"/>
<path transform="matrix(1.00005,0,0,-1.00005,14.9867939,79.013149)" stroke-width=".3985" stroke-linecap="butt" stroke-miterlimit="10" stroke-linejoin="miter" fill="none" stroke="#000000" d="M186.80191 49.81384C186.80191 53.9406 183.45659 57.28592 179.32984 57.28592 175.20307 57.28592 171.85776 53.9406 171.85776 49.81384 171.85776 45.68707 175.20307 42.34177 179.32984 42.34177 183.45659 42.34177 186.80191 45.68707 186.80191 49.81384ZM179.32984 49.81384"/>
<use data-text="T" xlink:href="#font_1_104" transform="matrix(9.963098,0,0,-9.963098,190.72858,32.569826)"/>
<path transform="matrix(1.00005,0,0,-1.00005,14.9867939,79.013149)" stroke-width=".3985" stroke-linecap="butt" stroke-miterlimit="10" stroke-linejoin="miter" fill="none" stroke="#000000" d="M127.11977 58.51556 168.22571 51.6643"/>
<path transform="matrix(.9863893,.16438821,.16438821,-.9863893,183.22092,27.346268)" d="M3.58653 0C2.52383 .19925 .797 .797-.3985 1.49438V-1.49438C.797-.797 2.52383-.19925 3.58653 0"/>
<path transform="matrix(1.00005,0,0,-1.00005,14.9867939,79.013149)" stroke-width=".3985" stroke-linecap="butt" stroke-miterlimit="10" stroke-linejoin="miter" fill="none" stroke="#000000" d="M186.80191 69.73938C186.80191 73.86613 183.45659 77.21146 179.32984 77.21146 175.20307 77.21146 171.85776 73.86613 171.85776 69.73938 171.85776 65.61261 175.20307 62.2673 179.32984 62.2673 183.45659 62.2673 186.80191 65.61261 186.80191 69.73938ZM179.32984 69.73938"/>
<use data-text="H" xlink:href="#font_1_62" transform="matrix(9.963098,0,0,-9.963098,190.58957,12.672836)"/>
<path transform="matrix(1.00005,0,0,-1.00005,14.9867939,79.013149)" stroke-width=".3985" stroke-linecap="butt" stroke-miterlimit="10" stroke-linejoin="miter" fill="none" stroke="#000000" d="M127.11977 61.03764 168.22571 67.8889"/>
<path transform="matrix(.9863893,-.16438821,-.16438821,-.9863893,183.22092,11.120857)" d="M3.58653 0C2.52383 .19925 .797 .797-.3985 1.49438V-1.49438C.797-.797 2.52383-.19925 3.58653 0"/>
</svg>
